<?xml version="1.0" encoding="UTF-8" standalone="no"?>
<svg
   xmlns:dc="http://purl.org/dc/elements/1.1/"
   xmlns:cc="http://creativecommons.org/ns#"
   xmlns:rdf="http://www.w3.org/1999/02/22-rdf-syntax-ns#"
   xmlns:svg="http://www.w3.org/2000/svg"
   xmlns="http://www.w3.org/2000/svg"
   xmlns:sodipodi="http://sodipodi.sourceforge.net/DTD/sodipodi-0.dtd"
   xmlns:inkscape="http://www.inkscape.org/namespaces/inkscape"
   version="1.1"
   id="Layer_1"
   x="0px"
   y="0px"
   width="611.99927"
   height="595.75403"
   viewBox="0 0 611.99927 595.75403"
   xml:space="preserve"
   sodipodi:docname="electric-guitar.svg"
   inkscape:version="1.0.1 (3bc2e813f5, 2020-09-07)"><metadata
   id="metadata39"><rdf:RDF><cc:Work
       rdf:about=""><dc:format>image/svg+xml</dc:format><dc:type
         rdf:resource="http://purl.org/dc/dcmitype/StillImage" /><dc:title></dc:title></cc:Work></rdf:RDF></metadata><defs
   id="defs37" /><sodipodi:namedview
   pagecolor="#ffffff"
   bordercolor="#666666"
   borderopacity="1"
   objecttolerance="10"
   gridtolerance="10"
   guidetolerance="10"
   inkscape:pageopacity="0"
   inkscape:pageshadow="2"
   inkscape:window-width="1360"
   inkscape:window-height="705"
   id="namedview35"
   showgrid="false"
   fit-margin-top="0"
   fit-margin-left="0"
   fit-margin-right="0"
   fit-margin-bottom="0"
   inkscape:zoom="0.24016632"
   inkscape:cx="446.68114"
   inkscape:cy="180.51227"
   inkscape:window-x="-8"
   inkscape:window-y="-8"
   inkscape:window-maximized="1"
   inkscape:current-layer="Layer_1" />
<path
   d="m 610.38182,6.596 c -2.29,-4.069 -6.545,-6.596 -11.104,-6.596 -2.255,0 -4.517,0.637 -6.536,1.843 l -12.723,7.592 -1.777,-4.237 c -1.054,-2.512 -3.831,-3.983 -6.432,-3.172 -2.981,0.931 -4.449,4.189 -3.271,7 l 2.436,5.806 -6.835,4.078 -1.776,-4.236 c -1.053,-2.51 -3.829,-3.983 -6.429,-3.172 -2.981,0.93 -4.452,4.189 -3.272,7 l 2.437,5.807 -6.841,4.082 -1.77,-4.233 c -1.051,-2.512 -3.824,-3.988 -6.426,-3.182 -2.983,0.926 -4.457,4.184 -3.282,6.997 l 2.432,5.815 -6.834,4.079 -1.769,-4.232 c -1.051,-2.512 -3.824,-3.988 -6.425,-3.182 -2.983,0.925 -4.457,4.183 -3.281,6.995 l 2.431,5.814 -6.836,4.08 -1.778,-4.247 c -1.051,-2.512 -3.825,-3.986 -6.426,-3.179 -2.983,0.927 -4.456,4.186 -3.279,6.998 l 2.438,5.824 -6.835,4.078 -1.776,-4.244 c -1.052,-2.511 -3.828,-3.987 -6.428,-3.177 -2.982,0.928 -4.454,4.186 -3.277,6.998 l 2.438,5.822 -4.778,2.852 -4.422,14.073 c -1.012,3.223 -2.831,6.168 -5.258,8.521 l -213.517,206.831 c -5.65,5.473 -14.542,6.445 -20.859,1.758 -0.649,-0.481 -1.262,-1.01 -1.839,-1.587 -9.84,-9.84 -5.578,-18.726 -5.091,-19.651 l 0.29,-0.602 c 0.031,-0.079 3.244,-7.904 10.491,-17.243 6.214,-8.001 6.751,-18.784 1.367,-27.472 -5.268,-8.502 -14.939,-12.73 -24.579,-10.788 -1.157,0.219 -2.246,0.543 -3.25,0.969 -26.204,11.197 -45.847,36.161 -60.049,76.314 -8.96,25.311 -28.806,44.884 -54.444,53.698 l -37.760999,12.955 c -6.505,1.417 -12.876,3.606 -18.945,6.509 l -7.394,2.882 0.708,0.708 c -6.181,3.672 -11.862,8.087 -16.954,13.18 -16.1100003,16.111 -25.07200028,37.467 -25.28800028,60.217 -0.226,23.603 9.58599998,46.199 26.27700028,62.891 l 61.274,61.273 c 16.833999,16.834 38.945999,25.251 61.058999,25.251 22.113,0 44.225,-8.417 61.059,-25.251 5.144,-5.145 9.615,-10.91 13.29,-17.141 14.006,-18.441 21.924,-44.003 26.104,-62.228 4.101,-17.826 16.776,-32.542 33.903,-39.362 17.075,-6.796 40.627,-18.346 50.808,-28.526 8.635,-8.635 12.432,-17.322 11.951,-27.337 -0.396,-8.291 -4.356,-15.636 -10.337,-19.166 -4.979,-2.939 -10.796,-3.045 -16.414,-0.288 -1.299,0.649 -2.387,1.17 -3.212,1.535 -18.891,8.606 -31.708,9.153 -39.183,1.678 -6.834,-6.835 -4.709,-15.82 -1.656,-22.237 1.878,-3.946 4.481,-7.506 7.535,-10.633 l 226.047,-231.559 8.026,-8.026 c 4.075,-4.076 9.452,-6.716 15.205,-7.059 6.664,-0.397 12.997,2.016 17.671,6.69 l 4.694,4.695 56.006,-92.192 c 2.418,-3.987 2.52,-8.752 0.271,-12.751 z m -290.34,380.905 c 0.91,-0.403 2.153,-0.997 3.563,-1.702 2.43,-1.192 4.553,-1.22 6.485,-0.078 2.947,1.739 4.997,5.935 5.226,10.686 0.338,7.061 -2.326,12.882 -8.91,19.466 -7.227,7.226 -26.674,18.005 -47.294,26.212 -20.309,8.087 -35.339,25.55 -40.208,46.715 -3.944,17.198 -11.334,41.206 -24.176,58.164 l -0.248,0.248 -0.339,0.58 c -3.259,5.577 -7.243,10.737 -11.841,15.335 -29.602,29.604 -77.769,29.604 -107.370999,0 l -62.263,-62.263 c -14.344,-14.34 -22.241,-33.407 -22.24,-53.688 0.001,-20.277 7.9,-39.343 22.24,-53.683 5.972,-5.973 12.868,-10.886 20.499,-14.605 l 0.247,-0.121 c 5.432,-2.601 11.136,-4.551 16.957,-5.795 l 38.656999,-13.225 c 28.667,-9.854 50.859,-31.752 60.887,-60.081 13.177,-37.254 30.943,-60.218 54.301,-70.198 0.211,-0.09 0.575,-0.218 1.17,-0.331 6.534,-1.315 11.368,2.26 13.714,6.047 2.438,3.935 3.524,10.096 -0.74,15.586 -7.513,9.681 -11.146,17.881 -11.818,19.478 -0.59,1.163 -2.264,4.893 -2.427,10.071 -0.171,5.438 1.324,13.619 9.418,21.714 3.892,3.891 8.784,6.43 14.457,7.582 l -38.141,36.946 36.861,36.86 14.987,-15.353 c -0.187,6.538 1.764,13.218 7.517,18.971 16.225,16.228 42.308,4.345 50.83,0.462 z m -73.425,-18.911 -21.909,-21.907 c 0.001,0 260.29,-252.169 260.594,-252.491 l 14.767,14.766 z m 354.579,-354.658 -49.442,81.393 c -5.456,-3.669 -11.875,-5.642 -18.599,-5.642 -8.924,0 -17.313,3.476 -23.624,9.786 l -2.103,2.102 -16.257,-16.257 c 0.434,-0.997 0.827,-2.012 1.154,-3.051 l 3.231,-10.281 102.529,-61.187 c 0.416,-0.248 0.807,-0.369 1.192,-0.369 0.774,0 1.584,0.516 2.015,1.283 0.408,0.72 0.377,1.447 -0.096,2.223 z m -458.44,472.276 -35.68,-35.681 7.374,-7.374 35.68,35.681 z m 25.215,-33.604 c 2.036,2.035 2.036,5.336 0,7.373 -1.02,1.017 -2.353,1.526 -3.688,1.526 -1.335,0 -2.669,-0.509 -3.687,-1.526 l -27.286,-27.286 c -2.036,-2.036 -2.036,-5.336 0,-7.373 2.036,-2.036 5.336,-2.036 7.373,0 z m 9.429,-4.22 c -1.334,0 -2.669,-0.508 -3.688,-1.525 l -27.286,-27.286 c -2.036,-2.036 -2.036,-5.336 0,-7.373 2.036,-2.036 5.336,-2.036 7.373,0 l 27.286,27.286 c 2.036,2.035 2.036,5.336 0,7.373 -1.017,1.017 -2.35,1.525 -3.685,1.525 z m 33.726,-38.939 c 2.036,2.035 2.036,5.336 0,7.373 -1.02,1.017 -2.353,1.526 -3.688,1.526 -1.334,0 -2.669,-0.509 -3.687,-1.526 l -27.285,-27.285 c -2.036,-2.036 -2.036,-5.336 0,-7.373 2.036,-2.036 5.336,-2.036 7.373,0 z m 12.456,-12.455 c 2.036,2.035 2.036,5.337 0,7.373 -1.019,1.017 -2.354,1.526 -3.687,1.526 -1.335,0 -2.669,-0.509 -3.688,-1.526 l -27.285,-27.286 c -2.036,-2.036 -2.036,-5.338 0,-7.373 2.037,-2.036 5.337,-2.035 7.373,0 z m -73.373,108.827 c -10.777,0 -15.603,17.898 -15.603,35.638 0,18.353 10.989,32.973 11.457,33.587 l 4.146,5.435 4.146,-5.435 c 0.468,-0.614 11.457,-15.234 11.457,-33.587 0,-17.739 -4.825,-35.638 -15.603,-35.638 z m -0.01,55.915 c -2.486,-5.009 -5.164,-12.267 -5.164,-20.278 0,-14.023 3.279,-22.48 5.176,-24.788 1.897,2.308 5.176,10.765 5.176,24.788 -0.002,7.969 -2.696,15.249 -5.188,20.278 z m 41.22,-45.397 c 0.571,0 1.148,-0.032 1.716,-0.098 4.021,-0.455 7.624,-2.447 10.146,-5.612 2.522,-3.166 3.66,-7.123 3.204,-11.143 -0.867,-7.665 -7.333,-13.446 -15.04,-13.446 -0.569,0 -1.147,0.032 -1.715,0.098 -4.021,0.455 -7.623,2.447 -10.145,5.612 -2.522,3.166 -3.66,7.123 -3.204,11.143 0.866,7.666 7.331,13.446 15.038,13.446 z m -3.68,-18.091 c 0.786,-0.986 1.909,-1.606 3.163,-1.749 0.183,-0.021 0.364,-0.031 0.543,-0.031 2.397,0 4.408,1.803 4.679,4.193 0.142,1.252 -0.212,2.485 -0.999,3.472 -0.786,0.987 -1.909,1.607 -3.163,1.75 -0.183,0.021 -0.364,0.031 -0.543,0.031 -2.397,0 -4.408,-1.803 -4.679,-4.193 -0.142,-1.253 0.213,-2.488 0.999,-3.473 z m 4.473,22.408 c -0.57,0 -1.147,0.032 -1.715,0.097 -8.3,0.939 -14.288,8.456 -13.349,16.756 0.867,7.665 7.333,13.445 15.041,13.445 0.569,0 1.147,-0.032 1.715,-0.097 4.021,-0.455 7.624,-2.447 10.146,-5.612 2.522,-3.166 3.66,-7.123 3.204,-11.143 -0.868,-7.665 -7.334,-13.446 -15.042,-13.446 z m 3.682,18.092 c -0.786,0.986 -1.91,1.607 -3.162,1.749 -2.613,0.293 -4.932,-1.592 -5.223,-4.161 -0.293,-2.586 1.574,-4.93 4.16,-5.223 0.183,-0.021 0.364,-0.03 0.543,-0.03 2.397,0 4.41,1.801 4.679,4.193 0.143,1.252 -0.211,2.486 -0.997,3.472 z"
   id="path2"
   style="fill:#dddddd;fill-opacity:0.964706;stroke:none;stroke-opacity:0.964706" />
<g
   id="g4"
   transform="translate(-90.001179)">
</g>
<g
   id="g6"
   transform="translate(-90.001179)">
</g>
<g
   id="g8"
   transform="translate(-90.001179)">
</g>
<g
   id="g10"
   transform="translate(-90.001179)">
</g>
<g
   id="g12"
   transform="translate(-90.001179)">
</g>
<g
   id="g14"
   transform="translate(-90.001179)">
</g>
<g
   id="g16"
   transform="translate(-90.001179)">
</g>
<g
   id="g18"
   transform="translate(-90.001179)">
</g>
<g
   id="g20"
   transform="translate(-90.001179)">
</g>
<g
   id="g22"
   transform="translate(-90.001179)">
</g>
<g
   id="g24"
   transform="translate(-90.001179)">
</g>
<g
   id="g26"
   transform="translate(-90.001179)">
</g>
<g
   id="g28"
   transform="translate(-90.001179)">
</g>
<g
   id="g30"
   transform="translate(-90.001179)">
</g>
<g
   id="g32"
   transform="translate(-90.001179)">
</g>
</svg>
