<?xml version="1.0" encoding="UTF-8" standalone="no"?>
<svg
   xmlns:dc="http://purl.org/dc/elements/1.1/"
   xmlns:cc="http://creativecommons.org/ns#"
   xmlns:rdf="http://www.w3.org/1999/02/22-rdf-syntax-ns#"
   xmlns:svg="http://www.w3.org/2000/svg"
   xmlns="http://www.w3.org/2000/svg"
   xmlns:sodipodi="http://sodipodi.sourceforge.net/DTD/sodipodi-0.dtd"
   xmlns:inkscape="http://www.inkscape.org/namespaces/inkscape"
   width="119.48787"
   height="119.48786"
   viewBox="0 0 119.48787 119.48787"
   version="1.1"
   id="svg8"
   inkscape:version="1.0.1 (3bc2e813f5, 2020-09-07)"
   sodipodi:docname="cianware.svg"
   inkscape:export-filename="F:\MARCAS\CIANWARE\REPOS\PORTAFOLIO\public\Images\gallery\cianware.png"
   inkscape:export-xdpi="803.42889"
   inkscape:export-ydpi="803.42889">
  <defs
     id="defs2">
    <clipPath
       clipPathUnits="userSpaceOnUse"
       id="clipPath966">
      <path
         d="M 0,500 H 500 V 0 H 0 Z"
         id="path964" />
    </clipPath>
    <clipPath
       clipPathUnits="userSpaceOnUse"
       id="clipPath976">
      <path
         d="M -103.108,71.3218 H 103.108 V -71.3223 h -206.216 z"
         id="path974" />
    </clipPath>
    <clipPath
       clipPathUnits="userSpaceOnUse"
       id="clipPath1008">
      <path
         d="M -103.108,71.3218 H 103.108 V -71.3223 h -206.216 z"
         id="path1006" />
    </clipPath>
    <clipPath
       clipPathUnits="userSpaceOnUse"
       id="clipPath1040">
      <path
         d="M -103.108,71.3218 H 103.108 V -71.3223 h -206.216 z"
         id="path1038" />
    </clipPath>
    <clipPath
       clipPathUnits="userSpaceOnUse"
       id="clipPath1072">
      <path
         d="M -103.108,71.3218 H 103.108 V -71.3223 h -206.216 z"
         id="path1070" />
    </clipPath>
    <clipPath
       clipPathUnits="userSpaceOnUse"
       id="clipPath1104">
      <path
         d="M -103.108,71.3218 H 103.108 V -71.3223 h -206.216 z"
         id="path1102" />
    </clipPath>
    <clipPath
       clipPathUnits="userSpaceOnUse"
       id="clipPath1136">
      <path
         d="M -103.108,71.3218 H 103.108 V -71.3223 h -206.216 z"
         id="path1134" />
    </clipPath>
    <clipPath
       clipPathUnits="userSpaceOnUse"
       id="clipPath1168">
      <path
         d="M -103.108,71.3218 H 103.108 V -71.3223 h -206.216 z"
         id="path1166" />
    </clipPath>
    <clipPath
       clipPathUnits="userSpaceOnUse"
       id="clipPath1200">
      <path
         d="M -103.108,71.3218 H 103.108 V -71.3223 h -206.216 z"
         id="path1198" />
    </clipPath>
    <clipPath
       clipPathUnits="userSpaceOnUse"
       id="clipPath1598">
      <path
         d="M 0,500 H 500 V 0 H 0 Z"
         id="path1596" />
    </clipPath>
    <clipPath
       clipPathUnits="userSpaceOnUse"
       id="clipPath1608">
      <path
         d="M -103.108,71.3218 H 103.108 V -71.3223 h -206.216 z"
         id="path1606" />
    </clipPath>
    <clipPath
       clipPathUnits="userSpaceOnUse"
       id="clipPath1640">
      <path
         d="M -103.108,71.3218 H 103.108 V -71.3223 h -206.216 z"
         id="path1638" />
    </clipPath>
    <clipPath
       clipPathUnits="userSpaceOnUse"
       id="clipPath1672">
      <path
         d="M -103.108,71.3218 H 103.108 V -71.3223 h -206.216 z"
         id="path1670" />
    </clipPath>
    <clipPath
       clipPathUnits="userSpaceOnUse"
       id="clipPath1704">
      <path
         d="M -103.108,71.3218 H 103.108 V -71.3223 h -206.216 z"
         id="path1702" />
    </clipPath>
    <clipPath
       clipPathUnits="userSpaceOnUse"
       id="clipPath1736">
      <path
         d="M -103.108,71.3218 H 103.108 V -71.3223 h -206.216 z"
         id="path1734" />
    </clipPath>
    <clipPath
       clipPathUnits="userSpaceOnUse"
       id="clipPath1768">
      <path
         d="M -103.108,71.3218 H 103.108 V -71.3223 h -206.216 z"
         id="path1766" />
    </clipPath>
    <clipPath
       clipPathUnits="userSpaceOnUse"
       id="clipPath1800">
      <path
         d="M -103.108,71.3218 H 103.108 V -71.3223 h -206.216 z"
         id="path1798" />
    </clipPath>
    <clipPath
       clipPathUnits="userSpaceOnUse"
       id="clipPath1832">
      <path
         d="M -103.108,71.3218 H 103.108 V -71.3223 h -206.216 z"
         id="path1830" />
    </clipPath>
  </defs>
  <sodipodi:namedview
     id="base"
     pagecolor="#ffffff"
     bordercolor="#666666"
     borderopacity="1.0"
     inkscape:pageopacity="0.0"
     inkscape:pageshadow="2"
     inkscape:zoom="0.90509668"
     inkscape:cx="265.41536"
     inkscape:cy="145.4434"
     inkscape:document-units="px"
     inkscape:current-layer="layer1"
     inkscape:document-rotation="0"
     showgrid="false"
     showguides="true"
     inkscape:guide-bbox="true"
     units="px"
     fit-margin-top="0"
     fit-margin-left="0"
     fit-margin-right="0"
     fit-margin-bottom="0"
     inkscape:window-width="1360"
     inkscape:window-height="705"
     inkscape:window-x="-8"
     inkscape:window-y="-8"
     inkscape:window-maximized="1"
     showborder="false" />
  <metadata
     id="metadata5">
    <rdf:RDF>
      <cc:Work
         rdf:about="">
        <dc:format>image/svg+xml</dc:format>
        <dc:type
           rdf:resource="http://purl.org/dc/dcmitype/StillImage" />
        <dc:title></dc:title>
      </cc:Work>
    </rdf:RDF>
  </metadata>
  <g
     inkscape:label="Capa 1"
     inkscape:groupmode="layer"
     id="layer1"
     transform="translate(7.9584079,52.562721)">
    <circle
       style="fill:#ffff00;fill-opacity:1;stroke:none;stroke-width:0.307307;stroke-opacity:1"
       id="path1111-9"
       cx="51.046997"
       cy="-22.99371"
       r="0" />
    <circle
       style="fill:#ffff00;fill-opacity:1;stroke:none;stroke-width:0.307307;stroke-opacity:1"
       id="path1111-3"
       cx="51.046997"
       cy="-22.99371"
       r="0" />
    <circle
       style="fill:#ffff00;fill-opacity:1;stroke:none;stroke-width:0.307307;stroke-opacity:1"
       id="path1111-93"
       cx="51.046997"
       cy="-22.99371"
       r="0" />
    <circle
       style="fill:#ffff00;fill-opacity:1;stroke:none;stroke-width:0.307307;stroke-opacity:1"
       id="path1111-7"
       cx="51.046997"
       cy="-22.99371"
       r="0" />
    <circle
       style="fill:#ffff00;fill-opacity:1;stroke:none;stroke-width:0.307307;stroke-opacity:1"
       id="path1111-4"
       cx="51.046997"
       cy="-22.99371"
       r="0" />
    <rect
       style="fill:#ffffff;stroke:none;stroke-width:0.512132;stroke-opacity:1"
       id="rect947"
       width="119.48787"
       height="119.48786"
       x="-7.9584079"
       y="-52.562721" />
    <path
       style="fill:#150f0a;fill-opacity:1;stroke:none;stroke-width:0.120428;stroke-linecap:butt;stroke-linejoin:miter;stroke-miterlimit:4;stroke-dasharray:none;stroke-opacity:1"
       d="m 62.763624,31.520041 c 11.046744,0.797208 39.629616,0.0011 39.629616,-24.690946 0,-24.692045 -28.582876,-25.488154 -39.62962,-24.690945 -28.361659,2.046772 -64.132091,24.690945 -64.132091,24.690945 0,0 35.770436,22.644174 64.132095,24.690946 z"
       id="path1365-6-22-2"
       sodipodi:nodetypes="scscs" />
    <g
       aria-label="CIANWARE"
       id="text851-2"
       style="font-style:normal;font-variant:normal;font-weight:normal;font-stretch:normal;font-size:11.8942px;line-height:1.25;font-family:'The Shape Of Things';-inkscape-font-specification:'The Shape Of Things';fill:#00c6ff;fill-opacity:1;stroke:none;stroke-width:0.297357"
       transform="matrix(0.994384,0,0,1,0.06382125,0)">
      <path
         d="m 16.010555,2.1907721 h 3.484629 v 1.7423145 h -3.484629 q -1.202197,0 -2.055931,0.8537342 -0.847927,0.8479263 -0.847927,2.0501233 0,1.2021971 0.847927,2.0559312 0.853734,0.8479263 2.055931,0.8479263 h 3.484629 v 1.7423144 h -3.484629 q -1.922354,0 -3.287167,-1.359005 -1.359005,-1.3648132 -1.359005,-3.2871669 0,-1.9223536 1.359005,-3.2813589 1.364813,-1.3648131 3.287167,-1.3648131 z"
         style="font-style:normal;font-variant:normal;font-weight:normal;font-stretch:normal;font-family:'The Shape Of Things';-inkscape-font-specification:'The Shape Of Things';fill:#00c6ff;fill-opacity:1;stroke-width:0.297357"
         id="path1518" />
      <path
         d="M 22.399041,11.483116 H 20.656727 V 2.1907721 h 1.742314 z"
         style="font-style:normal;font-variant:normal;font-weight:normal;font-stretch:normal;font-family:'The Shape Of Things';-inkscape-font-specification:'The Shape Of Things';fill:#00c6ff;fill-opacity:1;stroke-width:0.297357"
         id="path1520" />
      <path
         d="m 25.47713,9.7408016 h 6.040024 L 28.497142,4.5138581 Z M 22.462926,11.483116 28.497142,1.0234214 34.531358,11.483116 Z"
         style="fill:#00c6ff;fill-opacity:1"
         id="path1522" />
      <path
         d="M 36.337557,5.1643222 V 11.483116 H 34.595243 V 0.95953657 l 7.550029,7.55002953 v -6.318794 h 1.742315 V 12.714352 Z"
         style="font-style:normal;font-variant:normal;font-weight:normal;font-stretch:normal;font-family:'The Shape Of Things';-inkscape-font-specification:'The Shape Of Things';fill:#00c6ff;fill-opacity:1;stroke-width:0.297357"
         id="path1524" />
      <path
         d="M 52.018387,8.5444124 49.985686,12.069695 44.288318,2.1907721 h 2.009469 l 3.687899,6.3942943 1.027966,-1.7829685 -2.659934,-4.6113258 h 2.00947 l 1.655199,2.8690113 1.655198,-2.8690113 h 2.00947 l -2.659934,4.6113258 1.027966,1.7829685 3.687899,-6.3942943 h 2.009469 l -5.697368,9.8789229 z"
         style="font-style:normal;font-variant:normal;font-weight:normal;font-stretch:normal;font-family:'The Shape Of Things';-inkscape-font-specification:'The Shape Of Things';fill:#00c6ff;fill-opacity:1;stroke-width:0.297357"
         id="path1526" />
      <path
         d="m 60.033034,9.7408016 h 6.040024 L 63.053046,4.5138581 Z M 57.01883,11.483116 63.053046,1.0234214 69.087262,11.483116 Z"
         style="font-style:normal;font-variant:normal;font-weight:normal;font-stretch:normal;font-family:'The Shape Of Things';-inkscape-font-specification:'The Shape Of Things';fill:#00c6ff;fill-opacity:1;stroke-width:0.297357"
         id="path1528" />
      <path
         d="m 69.151149,2.1907721 h 5.807715 q 2.903857,0 2.903857,2.7586647 0,2.4102017 -2.218547,2.7122029 l 2.206932,3.8214763 H 75.835829 L 73.657936,7.7081014 h -2.764473 v 3.7750146 h -1.742314 z m 1.742314,1.7423145 v 2.0327003 h 4.065401 q 1.161543,0 1.161543,-1.0163501 0,-1.0163502 -1.161543,-1.0163502 z"
         style="font-style:normal;font-variant:normal;font-weight:normal;font-stretch:normal;font-family:'The Shape Of Things';-inkscape-font-specification:'The Shape Of Things';fill:#00c6ff;fill-opacity:1;stroke-width:0.297357"
         id="path1530" />
      <path
         d="m 80.766579,9.7408016 h 6.388486 V 11.483116 H 79.024264 V 2.1907721 h 8.130801 v 1.7423145 h -6.388486 v 2.0327003 h 5.807715 l -0.580772,1.7423145 h -5.226943 z"
         style="font-style:normal;font-variant:normal;font-weight:normal;font-stretch:normal;font-family:'The Shape Of Things';-inkscape-font-specification:'The Shape Of Things';fill:#00c6ff;fill-opacity:1;stroke-width:0.297357"
         id="path1532" />
    </g>
    <g
       aria-label="&lt;"
       id="text851-9-3"
       style="font-style:normal;font-variant:normal;font-weight:normal;font-stretch:normal;font-size:15.6939px;line-height:1.25;font-family:'The Shape Of Things';-inkscape-font-specification:'The Shape Of Things';fill:#a97a54;fill-opacity:1;stroke:none;stroke-width:0.392348"
       transform="matrix(0.65884332,0,0,0.65908735,9.4633241,1.0584853)">
      <path
         d="M 0.00529512,16.718201 -13.803498,8.7563053 0.00529512,0.7867467 0,3.4458304 -9.1980131,8.7563049 0,14.06678 Z"
         style="font-style:normal;font-variant:normal;font-weight:normal;font-stretch:normal;font-family:'The Shape Of Things';-inkscape-font-specification:'The Shape Of Things';fill:#a97a54;fill-opacity:1;stroke-width:0.392348"
         id="path1062-7"
         sodipodi:nodetypes="ccccccc" />
    </g>
    <g
       aria-label="/&gt;"
       id="text851-9-4-9"
       style="font-style:normal;font-variant:normal;font-weight:normal;font-stretch:normal;font-size:15.6939px;line-height:1.25;font-family:'The Shape Of Things';-inkscape-font-specification:'The Shape Of Things';fill:#feffff;fill-opacity:1;stroke:none;stroke-width:0.392348"
       transform="matrix(0.38035258,0,0,0.65908735,49.198199,1.0584853)">
      <path
         d="M 105.01522,14.419543 117.27608,2.1586838 h 3.24913 L 108.26435,14.419543 Z"
         style="font-style:normal;font-variant:normal;font-weight:normal;font-stretch:normal;font-family:'The Shape Of Things';-inkscape-font-specification:'The Shape Of Things';fill:#feffff;fill-opacity:1;stroke-width:0.392348"
         id="path1084-9"
         sodipodi:nodetypes="ccccc" />
      <path
         d="m 121.37967,16.718454 13.80879,-7.9618952 -13.80879,-7.96955865 0.005,2.65908355 9.19801,5.3104749 -9.19801,5.3104754 z"
         style="font-style:normal;font-variant:normal;font-weight:normal;font-stretch:normal;font-family:'The Shape Of Things';-inkscape-font-specification:'The Shape Of Things';fill:#feffff;fill-opacity:1;stroke-width:0.392348"
         id="path1086-8"
         sodipodi:nodetypes="ccccccc" />
    </g>
  </g>
</svg>
