<?xml version="1.0" encoding="UTF-8" standalone="no"?>
<svg
   xmlns:dc="http://purl.org/dc/elements/1.1/"
   xmlns:cc="http://creativecommons.org/ns#"
   xmlns:rdf="http://www.w3.org/1999/02/22-rdf-syntax-ns#"
   xmlns:svg="http://www.w3.org/2000/svg"
   xmlns="http://www.w3.org/2000/svg"
   viewBox="0 0 793.70667 1122.52"
   height="1122.52"
   width="793.70667"
   xml:space="preserve"
   id="svg856"
   version="1.1"><metadata
     id="metadata862"><rdf:RDF><cc:Work
         rdf:about=""><dc:format>image/svg+xml</dc:format><dc:type
           rdf:resource="http://purl.org/dc/dcmitype/StillImage" /><dc:title></dc:title></cc:Work></rdf:RDF></metadata><defs
     id="defs860"><clipPath
       id="clipPath872"
       clipPathUnits="userSpaceOnUse"><path
         id="path870"
         d="M 0,841.89 H 595.28 V 0 H 0 Z" /></clipPath><clipPath
       id="clipPath980"
       clipPathUnits="userSpaceOnUse"><path
         id="path978"
         d="M 0,841.89 H 595.28 V 0 H 0 Z" /></clipPath><clipPath
       id="clipPath1012"
       clipPathUnits="userSpaceOnUse"><path
         id="path1010"
         d="M 0,841.89 H 595.28 V 0 H 0 Z" /></clipPath></defs><g
     transform="matrix(1.3333333,0,0,-1.3333333,0,1122.52)"
     id="g864"><g
       id="g866"><g
         clip-path="url(#clipPath872)"
         id="g868"><g
           transform="translate(302.335,764.2231)"
           id="g874"><path
             id="path876"
             style="fill:#231f20;fill-opacity:1;fill-rule:nonzero;stroke:none"
             d="m 0,0 c -33.793,0 -71.604,-13.583 -89.525,-34.38 -5.563,-4.294 -10.809,-8.978 -15.699,-14.011 0,0 -8.713,8.891 -23.005,8.433 2.792,19.458 9.625,26.041 14.959,33.125 4.682,6.218 1.25,13.416 -6.167,13.75 -5.468,5.281 -12.497,12.749 -24.667,24.75 -6.346,6.258 -12.312,-0.438 -12.312,-0.438 0,0 -5.835,4.807 -7.344,5.625 -4.437,2.406 -6.812,-3.656 -2.875,-5.187 2.018,-0.785 8.844,-3.125 8.844,-3.125 0,0 -2.146,-6.167 4.187,-9.542 7.146,-3.808 23,-10.5 29.375,-13.646 -24.541,-44.187 4.331,-71.407 4.331,-71.407 -14.211,-20.098 -23.505,-43.921 -26.13,-69.714 0,0 -22.826,-10.379 -31.513,-14.441 -3.646,-1.706 -5,-6.313 -3.896,-9.875 -2.51,-1.625 -7.406,-4.645 -10.354,-6.75 -1.313,-0.938 -1.906,-2.66 -1.453,-4.36 -1.172,-0.578 -3.339,-1.579 -4.844,-2.453 -4.844,-2.812 0.516,-8.625 3.703,-4.562 1.131,1.44 2.625,3.552 3.313,4.5 1.694,-0.74 3.359,-0.329 4.687,1 2.219,2.218 6.5,6.781 8.198,8.541 3.208,-1.916 7.139,-1.717 10.333,1.209 5.938,5.437 21.245,19.5 21.245,19.5 -0.121,-2.443 -0.182,-4.902 -0.182,-7.375 0,-31.673 10.016,-61.007 27.053,-85.008 0,0 -10.949,-20.492 -13.991,-36.117 -0.805,-4.14 2.625,-7.375 2.625,-7.375 l -20.458,-8.917 c 0,0 -6.583,-2.5 -4.542,-10.167 -2.125,-1.291 -9.958,-6.5 -9.958,-6.5 0,0 -2.073,-1.51 -1.333,-4.291 -0.802,-0.344 -3.488,-1.695 -4.865,-2.469 -5,-2.813 0.641,-8.58 3.719,-4.563 1.125,1.469 2.25,3.219 3.271,4.532 2.76,-1.125 4.416,0.708 4.416,0.708 0,0 6.375,6.625 8.042,8.333 6.875,-4.041 11.167,2.167 11.167,2.167 l 16.437,19.313 c 0,0 6.714,0.73 7.188,7.27 1.25,17.25 4.807,29.558 4.807,29.558 26.966,-32.672 67.543,-53.496 113.213,-53.496 45.67,0 86.246,20.824 113.212,53.496 0,0 3.557,-12.308 4.807,-29.558 0.474,-6.54 7.187,-7.27 7.187,-7.27 l 16.438,-19.313 c 0,0 4.293,-6.208 11.168,-2.167 1.666,-1.708 8.041,-8.333 8.041,-8.333 0,0 1.656,-1.833 4.416,-0.708 1.021,-1.313 2.146,-3.063 3.271,-4.532 3.078,-4.017 8.719,1.75 3.719,4.563 -1.377,0.774 -4.063,2.125 -4.865,2.469 0.74,2.781 -1.332,4.291 -1.332,4.291 0,0 -7.834,5.209 -9.959,6.5 2.041,7.667 -4.541,10.167 -4.541,10.167 l -20.459,8.917 c 0,0 3.43,3.235 2.625,7.375 -3.041,15.625 -13.991,36.117 -13.991,36.117 17.037,24.001 27.053,53.335 27.053,85.008 0,2.473 -0.061,4.932 -0.182,7.375 0,0 15.307,-14.063 21.245,-19.5 3.195,-2.926 7.125,-3.125 10.334,-1.209 1.697,-1.76 5.978,-6.323 8.197,-8.541 1.328,-1.329 2.993,-1.74 4.687,-1 0.688,-0.948 2.182,-3.06 3.313,-4.5 3.187,-4.063 8.547,1.75 3.703,4.562 -1.505,0.874 -3.672,1.875 -4.844,2.453 0.452,1.7 -0.14,3.422 -1.453,4.36 -2.948,2.105 -7.844,5.125 -10.353,6.75 1.103,3.562 -0.25,8.169 -3.897,9.875 -8.687,4.062 -31.513,14.441 -31.513,14.441 -2.626,25.793 -11.919,49.616 -26.13,69.714 0,0 28.872,27.22 4.331,71.407 6.375,3.146 22.228,9.838 29.375,13.646 6.334,3.375 4.187,9.542 4.187,9.542 0,0 6.826,2.34 8.844,3.125 3.937,1.531 1.562,7.593 -2.875,5.187 -1.509,-0.818 -7.344,-5.625 -7.344,-5.625 0,0 -5.966,6.696 -12.312,0.438 -12.17,-12.001 -19.199,-19.469 -24.666,-24.75 -7.418,-0.334 -10.85,-7.532 -6.168,-13.75 5.334,-7.084 12.167,-13.667 14.959,-33.125 -14.291,0.458 -23.004,-8.433 -23.004,-8.433 -4.891,5.033 -10.137,9.717 -15.7,14.011 C 71.603,-13.583 33.793,0 0,0" /></g><g
           transform="translate(302.1035,709.4312)"
           id="g878"><path
             id="path880"
             style="fill:#ffffff;fill-opacity:1;fill-rule:nonzero;stroke:none"
             d="m 0,0 c 32.568,0 74.019,3.125 85.766,10.639 31.12,-25.118 51.024,-63.575 51.024,-106.681 0,-75.674 -61.116,-137.021 -136.79,-137.021 -75.674,0 -136.791,61.347 -136.791,137.021 0,43.106 19.905,81.563 51.024,106.681 C -74.02,3.125 -32.569,0 0,0" /></g><g
           transform="translate(297.3281,482.2505)"
           id="g882"><path
             id="path884"
             style="fill:#bf1b2c;fill-opacity:1;fill-rule:nonzero;stroke:none"
             d="m 0,0 -0.011,159.092 c 0,0 -30.27,2.147 -30.27,22.876 0,20.771 30.266,22.896 30.266,22.896 l -0.001,13.875 c -32.875,-0.459 -67.062,4.479 -80.384,9.178 -27.327,-23.833 -44.594,-58.906 -44.594,-98.012 C -124.994,59.785 -69.477,2.63 0,0" /></g><g
           transform="translate(306.8779,482.2505)"
           id="g886"><path
             id="path888"
             style="fill:#bf1b2c;fill-opacity:1;fill-rule:nonzero;stroke:none"
             d="m 0,0 0.012,159.092 c 0,0 30.269,2.147 30.269,22.876 0,20.771 -30.266,22.896 -30.266,22.896 l 0.001,13.875 c 32.875,-0.459 67.062,4.479 80.384,9.178 27.327,-23.833 44.594,-58.906 44.594,-98.012 C 124.994,59.785 69.477,2.63 0,0" /></g><g
           transform="translate(278.7334,777.2187)"
           id="g890"><path
             id="path892"
             style="fill:#231f20;fill-opacity:1;fill-rule:nonzero;stroke:none"
             d="m 0,0 c -2.493,10.442 -12.241,26.92 -49.108,25.452 -3.917,-0.156 -5.844,-4.344 -5.458,-6.865 0.318,-2.084 2.713,-6.161 7.499,-5.041 30.611,7.164 41.552,-4.971 45.521,-13.813 z" /></g><g
           transform="translate(259.5898,533.7485)"
           id="g894"><path
             id="path896"
             style="fill:#ffffff;fill-opacity:1;fill-rule:nonzero;stroke:none"
             d="m 0,0 c -11.452,-8.569 -30.551,-2.397 -42.658,13.784 -12.109,16.182 -12.641,36.246 -1.189,44.815 11.452,8.57 30.551,2.397 42.658,-13.783 C 10.919,28.634 11.452,8.57 0,0" /></g><g
           transform="translate(333.625,664.2183)"
           id="g898"><path
             id="path900"
             style="fill:#231f20;fill-opacity:1;fill-rule:nonzero;stroke:none"
             d="m 0,0 c 0,-10.543 -14.01,-19.089 -31.291,-19.089 -17.281,0 -31.291,8.546 -31.291,19.089 0,10.543 14.01,19.089 31.291,19.089 C -14.01,19.089 0,10.543 0,0" /></g><g
           transform="translate(257.166,536.9878)"
           id="g902"><path
             id="path904"
             style="fill:#231f20;fill-opacity:1;fill-rule:nonzero;stroke:none"
             d="M 0,0 C -9.636,-7.21 -26.177,-1.387 -36.946,13.005 -47.716,27.398 -48.636,44.91 -39,52.12 -29.363,59.331 -12.822,53.507 -2.053,39.116 8.716,24.723 9.636,7.211 0,0" /></g><g
           transform="translate(213.9463,674.9233)"
           id="g906"><path
             id="path908"
             style="fill:#ffffff;fill-opacity:1;fill-rule:nonzero;stroke:none"
             d="m 0,0 c 9.026,-2.934 12.671,-16.596 8.144,-30.515 -4.526,-13.917 -15.511,-22.822 -24.537,-19.886 -9.025,2.935 -12.67,16.596 -8.145,30.515 C -20.011,-5.968 -9.026,2.936 0,0" /></g><g
           transform="translate(212.7207,671.1553)"
           id="g910"><path
             id="path912"
             style="fill:#231f20;fill-opacity:1;fill-rule:nonzero;stroke:none"
             d="m 0,0 c 6.826,-2.219 9.237,-13.614 5.387,-25.452 -3.849,-11.836 -12.503,-19.633 -19.328,-17.413 -6.826,2.219 -9.237,13.615 -5.389,25.452 C -15.48,-5.576 -6.826,2.22 0,0" /></g><g
           transform="translate(284.2393,753.2876)"
           id="g914"><path
             id="path916"
             style="fill:#ffffff;fill-opacity:1;fill-rule:nonzero;stroke:none"
             d="m 0,0 c 1.313,-3.26 -9.822,-10.815 -24.87,-16.876 -15.049,-6.061 -28.313,-8.331 -29.625,-5.072 -1.313,3.261 9.822,10.817 24.87,16.877 C -14.576,0.99 -1.312,3.26 0,0" /></g><g
           transform="translate(344.6162,533.7485)"
           id="g918"><path
             id="path920"
             style="fill:#ffffff;fill-opacity:1;fill-rule:nonzero;stroke:none"
             d="M 0,0 C 11.452,-8.569 30.551,-2.397 42.658,13.784 54.767,29.966 55.299,50.03 43.848,58.599 32.395,67.169 13.296,60.996 1.189,44.816 -10.92,28.634 -11.452,8.57 0,0" /></g><g
           transform="translate(347.04,536.9878)"
           id="g922"><path
             id="path924"
             style="fill:#231f20;fill-opacity:1;fill-rule:nonzero;stroke:none"
             d="M 0,0 C 9.637,-7.21 26.178,-1.387 36.946,13.005 47.716,27.398 48.636,44.91 39,52.12 29.363,59.331 12.822,53.507 2.053,39.116 -8.717,24.723 -9.637,7.211 0,0" /></g><g
           transform="translate(390.2598,674.9233)"
           id="g926"><path
             id="path928"
             style="fill:#ffffff;fill-opacity:1;fill-rule:nonzero;stroke:none"
             d="m 0,0 c -9.026,-2.934 -12.671,-16.596 -8.144,-30.515 4.526,-13.917 15.511,-22.822 24.537,-19.886 9.025,2.935 12.67,16.596 8.145,30.515 C 20.011,-5.968 9.026,2.936 0,0" /></g><g
           transform="translate(391.4854,671.1553)"
           id="g930"><path
             id="path932"
             style="fill:#231f20;fill-opacity:1;fill-rule:nonzero;stroke:none"
             d="m 0,0 c -6.826,-2.219 -9.237,-13.614 -5.387,-25.452 3.85,-11.836 12.502,-19.633 19.328,-17.413 6.827,2.219 9.237,13.615 5.389,25.452 C 15.48,-5.576 6.826,2.22 0,0" /></g><g
           transform="translate(319.9668,753.2876)"
           id="g934"><path
             id="path936"
             style="fill:#ffffff;fill-opacity:1;fill-rule:nonzero;stroke:none"
             d="m 0,0 c -1.313,-3.26 9.822,-10.815 24.87,-16.876 15.049,-6.061 28.313,-8.331 29.625,-5.072 1.313,3.261 -9.822,10.817 -24.871,16.877 C 14.576,0.99 1.312,3.26 0,0" /></g><g
           transform="translate(325.4727,777.2187)"
           id="g938"><path
             id="path940"
             style="fill:#231f20;fill-opacity:1;fill-rule:nonzero;stroke:none"
             d="m 0,0 c 2.493,10.442 12.241,26.92 49.108,25.452 3.917,-0.156 5.844,-4.344 5.458,-6.865 C 54.247,16.503 51.853,12.426 47.067,13.546 16.456,20.71 5.515,8.575 1.546,-0.267 Z" /></g></g></g><g
       transform="translate(191.75,430.8896)"
       id="g942"><path
         id="path944"
         style="fill:#231f20;fill-opacity:1;fill-rule:nonzero;stroke:none"
         d="M 0,0 H -69.75 V -124 H 0 v 8.25 l -58.5,-0.084 V -9.084 L 0,-9 Z" /></g><g
       transform="translate(191.75,415.3896)"
       id="g946"><path
         id="path948"
         style="fill:#231f20;fill-opacity:1;fill-rule:nonzero;stroke:none"
         d="m 0,0 h -52 v -39.5 h 44.25 v 8.166 h -31.083 v 23.25 H 0 Z" /></g><g
       transform="translate(191.75,322.0146)"
       id="g950"><path
         id="path952"
         style="fill:#231f20;fill-opacity:1;fill-rule:nonzero;stroke:none"
         d="M 0,0 H -52 V 47 H -7.75 V 38.834 H -38.833 V 8.084 L 0,8.084 Z" /></g><g
       transform="translate(392.75,430.8896)"
       id="g954"><path
         id="path956"
         style="fill:#231f20;fill-opacity:1;fill-rule:nonzero;stroke:none"
         d="M 0,0 H -69.75 V -124 H 0 v 8.25 l -58.5,-0.084 V -9.084 L 0,-9 Z" /></g><g
       transform="translate(392.75,415.3896)"
       id="g958"><path
         id="path960"
         style="fill:#231f20;fill-opacity:1;fill-rule:nonzero;stroke:none"
         d="m 0,0 h -52 v -39.5 h 44.25 v 8.166 h -31.083 v 23.25 H 0 Z" /></g><g
       transform="translate(392.75,322.0146)"
       id="g962"><path
         id="path964"
         style="fill:#231f20;fill-opacity:1;fill-rule:nonzero;stroke:none"
         d="M 0,0 H -52 V 47 H -7.75 V 38.834 H -38.833 V 8.084 L 0,8.084 Z" /></g><g
       transform="translate(253.25,353.8057)"
       id="g966"><path
         id="path968"
         style="fill:#231f20;fill-opacity:1;fill-rule:nonzero;stroke:none"
         d="m 0,0 40.25,73.584 v -120.5 H 54 v 124 H 29.25 l -29.25,-55 -29.25,55 H -54 v -124 h 13.75 v 120.5 z" /></g><g
       transform="translate(253.25,315.1396)"
       id="g970"><path
         id="path972"
         style="fill:#231f20;fill-opacity:1;fill-rule:nonzero;stroke:none"
         d="m 0,0 23.25,40.75 v -49 H 33.5 v 94.5 L 0,24.75 -33.5,86.25 v -94.5 h 10.25 v 49 z" /></g><g
       id="g974"><g
         clip-path="url(#clipPath980)"
         id="g976"><g
           transform="translate(452.335,369.6406)"
           id="g982"><path
             id="path984"
             style="fill:#231f20;fill-opacity:1;fill-rule:nonzero;stroke:none"
             d="m 0,0 c 0,-7.456 -6.045,-13.501 -13.501,-13.501 -7.456,0 -13.501,6.045 -13.501,13.501 0,7.456 6.045,13.501 13.501,13.501 C -6.045,13.501 0,7.456 0,0" /></g><g
           transform="translate(438.834,391.1416)"
           id="g986"><path
             id="path988"
             style="fill:#231f20;fill-opacity:1;fill-rule:nonzero;stroke:none"
             d="m 0,0 c 2.969,0 5.797,-0.602 8.369,-1.689 l 11.632,19.687 v 21.75 H 7.751 v -23.5 L 3.835,8.76 C 3.835,8.76 1.299,9 0,9 -1.299,9 -3.835,8.76 -3.835,8.76 l -3.916,7.488 v 23.5 h -12.25 V 17.998 L -8.369,-1.689 C -5.797,-0.602 -2.969,0 0,0" /></g><g
           transform="translate(417.333,369.6406)"
           id="g990"><path
             id="path992"
             style="fill:#231f20;fill-opacity:1;fill-rule:nonzero;stroke:none"
             d="m 0,0 c 0,-6.516 4.024,-13.447 8.604,-17.39 0.029,-0.024 -13.52,-22.192 -13.52,-22.192 v -23.169 h -12.417 v 23.335 l 12.905,24.08 C -6.708,-11.063 -9,-5.183 -9,0 c 0,5.183 1.292,10.063 3.572,14.336 l -11.905,23.08 V 61.249 H -4.916 V 37.582 c 0,0 12.549,-21.168 12.52,-21.192 C 3.024,12.447 0,6.516 0,0" /></g><g
           transform="translate(460.9395,369.6406)"
           id="g994"><path
             id="path996"
             style="fill:#231f20;fill-opacity:1;fill-rule:nonzero;stroke:none"
             d="m 0,0 c 0,-6.516 -4.024,-13.447 -8.604,-17.39 -0.029,-0.024 13.52,-22.192 13.52,-22.192 v -23.169 h 12.417 v 23.335 L 4.428,-15.336 C 6.708,-11.063 9,-5.183 9,0 9,5.183 7.708,10.063 5.428,14.336 l 11.905,23.08 V 61.249 H 4.916 V 37.582 c 0,0 -12.549,-21.168 -12.52,-21.192 C -3.024,12.447 0,6.516 0,0" /></g><g
           transform="translate(458.835,306.8896)"
           id="g998"><path
             id="path1000"
             style="fill:none;stroke:#ed1c24;stroke-width:0.25;stroke-linecap:butt;stroke-linejoin:miter;stroke-miterlimit:10;stroke-dasharray:none;stroke-opacity:1"
             d="M 0,0 H -12.25" /></g><g
           transform="translate(438.833,339.0957)"
           id="g1002"><path
             id="path1004"
             style="fill:#231f20;fill-opacity:1;fill-rule:nonzero;stroke:none"
             d="m 0,0 c 0.795,0 2.055,0.09 2.911,0.16 l 4.84,-9.117 v -23.249 h 12.25 V -11.04 L 7.347,10.287 C 5.055,9.454 2.58,9 0,9 h 0.001 c -2.58,0 -5.055,0.454 -7.347,1.287 L -20,-11.04 V -32.206 H -7.75 V -8.957 L -2.91,0.16 C -2.054,0.09 -0.794,0 0.001,0 Z" /></g></g></g><g
       id="g1006"><g
         clip-path="url(#clipPath1012)"
         id="g1008"><g
           transform="translate(138.2891,276.5957)"
           id="g1014"><path
             id="path1016"
             style="fill:#231f20;fill-opacity:1;fill-rule:nonzero;stroke:none"
             d="M 0,0 5.743,-1.758 C 5.357,-3.389 4.75,-4.751 3.92,-5.845 3.091,-6.938 2.062,-7.764 0.832,-8.32 c -1.229,-0.557 -2.794,-0.835 -4.694,-0.835 -2.305,0 -4.188,0.339 -5.65,1.017 -1.461,0.678 -2.722,1.871 -3.782,3.579 -1.061,1.708 -1.592,3.894 -1.592,6.558 0,3.553 0.933,6.283 2.8,8.19 1.866,1.909 4.506,2.863 7.92,2.863 2.671,0 4.771,-0.547 6.3,-1.641 C 3.663,10.317 4.798,8.638 5.541,6.372 L -0.246,5.068 c -0.202,0.655 -0.415,1.133 -0.636,1.436 -0.367,0.508 -0.815,0.898 -1.346,1.172 -0.53,0.273 -1.123,0.41 -1.779,0.41 -1.485,0 -2.623,-0.605 -3.414,-1.815 -0.598,-0.897 -0.897,-2.306 -0.897,-4.227 0,-2.381 0.357,-4.012 1.07,-4.895 0.714,-0.882 1.717,-1.324 3.01,-1.324 1.253,0 2.201,0.357 2.842,1.07 C -0.754,-2.393 -0.289,-1.357 0,0" /></g><g
           transform="translate(152.9438,278.5)"
           id="g1018"><path
             id="path1020"
             style="fill:#231f20;fill-opacity:1;fill-rule:nonzero;stroke:none"
             d="m 0,0 c 0,-2.168 0.397,-3.726 1.193,-4.673 0.796,-0.947 1.878,-1.421 3.248,-1.421 1.408,0 2.497,0.464 3.269,1.392 0.772,0.928 1.158,2.593 1.158,4.995 0,2.021 -0.403,3.498 -1.208,4.431 C 6.854,5.656 5.762,6.123 4.383,6.123 3.062,6.123 2.001,5.649 1.201,4.702 0.4,3.755 0,2.188 0,0 m -6.554,0.029 c 0,3.506 0.965,6.236 2.894,8.189 1.929,1.953 4.615,2.929 8.057,2.929 3.53,0 6.25,-0.959 8.16,-2.878 1.909,-1.918 2.864,-4.607 2.864,-8.064 0,-2.51 -0.417,-4.568 -1.251,-6.175 -0.835,-1.606 -2.04,-2.855 -3.617,-3.75 -1.577,-0.892 -3.542,-1.34 -5.895,-1.34 -2.392,0 -4.371,0.386 -5.938,1.158 -1.568,0.771 -2.839,1.992 -3.812,3.662 -0.975,1.67 -1.462,3.76 -1.462,6.269" /></g><g
           transform="translate(171.9385,289.2812)"
           id="g1022"><path
             id="path1024"
             style="fill:#231f20;fill-opacity:1;fill-rule:nonzero;stroke:none"
             d="m 0,0 h 6.119 l 7.986,-11.881 V 0 h 6.177 V -21.475 H 14.105 L 6.163,-9.684 V -21.475 H 0 Z" /></g><g
           transform="translate(195.0845,289.2812)"
           id="g1026"><path
             id="path1028"
             style="fill:#231f20;fill-opacity:1;fill-rule:nonzero;stroke:none"
             d="M 0,0 H 19.92 V -5.303 H 13.237 V -21.475 H 6.684 v 16.172 l -6.684,0 z" /></g><g
           transform="translate(224.6396,280.5801)"
           id="g1030"><path
             id="path1032"
             style="fill:#231f20;fill-opacity:1;fill-rule:nonzero;stroke:none"
             d="M 0,0 H 2.763 C 3.062,0 3.641,0.098 4.499,0.293 4.933,0.381 5.288,0.605 5.562,0.967 5.837,1.328 5.975,1.743 5.975,2.212 5.975,2.905 5.758,3.438 5.324,3.809 4.89,4.18 4.075,4.365 2.879,4.365 H 0 Z M -6.582,-12.773 V 8.701 H 4.34 c 2.025,0 3.573,-0.176 4.644,-0.527 1.07,-0.352 1.933,-1.003 2.589,-1.956 0.656,-0.951 0.984,-2.112 0.984,-3.479 0,-1.191 -0.251,-2.218 -0.753,-3.084 -0.501,-0.863 -1.192,-1.564 -2.07,-2.101 -0.559,-0.342 -1.326,-0.625 -2.301,-0.85 0.78,-0.264 1.349,-0.528 1.706,-0.792 0.241,-0.176 0.59,-0.552 1.048,-1.129 0.458,-0.577 0.764,-1.021 0.918,-1.334 l 3.174,-6.222 H 6.874 L 3.371,-6.211 C 2.927,-5.361 2.532,-4.81 2.185,-4.556 1.712,-4.224 1.177,-4.058 0.579,-4.058 H 0 v -8.715 z" /></g><g
           transform="translate(246.2383,278.5)"
           id="g1034"><path
             id="path1036"
             style="fill:#231f20;fill-opacity:1;fill-rule:nonzero;stroke:none"
             d="m 0,0 c 0,-2.168 0.397,-3.726 1.193,-4.673 0.796,-0.947 1.878,-1.421 3.248,-1.421 1.408,0 2.497,0.464 3.269,1.392 0.772,0.928 1.158,2.593 1.158,4.995 0,2.021 -0.403,3.498 -1.208,4.431 C 6.854,5.656 5.762,6.123 4.383,6.123 3.062,6.123 2.001,5.649 1.201,4.702 0.4,3.755 0,2.188 0,0 m -6.554,0.029 c 0,3.506 0.965,6.236 2.894,8.189 1.929,1.953 4.615,2.929 8.057,2.929 3.53,0 6.25,-0.959 8.16,-2.878 1.909,-1.918 2.864,-4.607 2.864,-8.064 0,-2.51 -0.417,-4.568 -1.251,-6.175 -0.835,-1.606 -2.04,-2.855 -3.617,-3.75 -1.577,-0.892 -3.542,-1.34 -5.895,-1.34 -2.392,0 -4.371,0.386 -5.938,1.158 -1.568,0.771 -2.839,1.992 -3.812,3.662 -0.975,1.67 -1.462,3.76 -1.462,6.269" /></g><g
           transform="translate(265.189,289.2812)"
           id="g1038"><path
             id="path1040"
             style="fill:#231f20;fill-opacity:1;fill-rule:nonzero;stroke:none"
             d="m 0,0 h 6.553 v -16.187 h 10.228 v -5.288 H 0 Z" /></g><g
           transform="translate(301.4717,284.418)"
           id="g1042"><path
             id="path1044"
             style="fill:#231f20;fill-opacity:1;fill-rule:nonzero;stroke:none"
             d="m 0,0 v -11.733 h 1.605 c 1.37,0 2.344,0.154 2.922,0.461 0.579,0.308 1.033,0.844 1.361,1.611 0.327,0.766 0.491,2.01 0.491,3.728 0,2.276 -0.366,3.833 -1.099,4.673 C 4.547,-0.42 3.332,0 1.634,0 Z m -6.554,4.863 h 9.737 c 1.919,0 3.468,-0.263 4.65,-0.791 1.182,-0.527 2.158,-1.284 2.93,-2.27 0.771,-0.987 1.331,-2.134 1.677,-3.443 0.348,-1.308 0.522,-2.695 0.522,-4.16 0,-2.295 -0.259,-4.075 -0.774,-5.339 -0.516,-1.265 -1.233,-2.325 -2.149,-3.179 -0.916,-0.855 -1.899,-1.423 -2.951,-1.706 -1.437,-0.391 -2.739,-0.586 -3.905,-0.586 h -9.737 z" /></g><g
           transform="translate(317.8613,289.2812)"
           id="g1046"><path
             id="path1048"
             style="fill:#231f20;fill-opacity:1;fill-rule:nonzero;stroke:none"
             d="M 0,0 H 17.562 V -4.585 H 6.568 v -3.413 h 10.199 v -4.38 H 6.568 v -4.233 h 11.313 v -4.864 H 0 Z" /></g><g
           transform="translate(355.7061,280.126)"
           id="g1050"><path
             id="path1052"
             style="fill:#231f20;fill-opacity:1;fill-rule:nonzero;stroke:none"
             d="M 0,0 H 1.605 C 2.869,0 3.756,0.222 4.268,0.666 4.778,1.11 5.034,1.68 5.034,2.373 5.034,3.047 4.812,3.618 4.368,4.087 3.925,4.556 3.091,4.79 1.866,4.79 H 0 Z M -6.583,9.155 H 4.311 C 6.684,9.155 8.46,8.584 9.642,7.441 10.823,6.299 11.414,4.673 11.414,2.563 11.414,0.396 10.77,-1.299 9.482,-2.52 8.195,-3.74 6.229,-4.351 3.587,-4.351 H 0 v -7.968 h -6.583 z" /></g><g
           transform="translate(370.5488,289.2812)"
           id="g1054"><path
             id="path1056"
             style="fill:#231f20;fill-opacity:1;fill-rule:nonzero;stroke:none"
             d="m 0,0 h 6.554 v -16.187 h 10.227 v -5.288 H 0 Z" /></g><g
           transform="translate(401.9883,275.9951)"
           id="g1058"><path
             id="path1060"
             style="fill:#231f20;fill-opacity:1;fill-rule:nonzero;stroke:none"
             d="M 0,0 -2.341,7.72 -4.657,0 Z M 1.359,-4.644 H -6.08 l -1.034,-3.544 h -6.692 l 7.972,21.474 H 1.314 L 9.283,-8.188 H 2.421 Z" /></g><g
           transform="translate(423.4814,275.585)"
           id="g1062"><path
             id="path1064"
             style="fill:#231f20;fill-opacity:1;fill-rule:nonzero;stroke:none"
             d="M 0,0 V 4.468 H 10.126 V -4.687 C 8.188,-6.025 6.474,-6.936 4.983,-7.42 3.493,-7.902 1.726,-8.145 -0.318,-8.145 c -2.518,0 -4.57,0.435 -6.156,1.304 -1.587,0.869 -2.816,2.163 -3.689,3.882 -0.873,1.719 -1.31,3.691 -1.31,5.918 0,2.344 0.478,4.382 1.433,6.115 0.955,1.734 2.353,3.05 4.195,3.948 1.437,0.694 3.371,1.041 5.801,1.041 2.344,0 4.097,-0.215 5.259,-0.645 1.162,-0.43 2.127,-1.097 2.893,-2 C 8.875,10.515 9.451,9.37 9.837,7.983 L 3.515,6.841 c -0.26,0.81 -0.702,1.43 -1.324,1.86 -0.622,0.43 -1.415,0.645 -2.379,0.645 -1.437,0 -2.583,-0.506 -3.436,-1.516 -0.854,-1.012 -1.28,-2.61 -1.28,-4.798 0,-2.324 0.431,-3.984 1.295,-4.98 0.862,-0.996 2.066,-1.494 3.609,-1.494 0.732,0 1.432,0.107 2.098,0.322 0.665,0.215 1.426,0.581 2.285,1.099 V 0 Z" /></g><g
           transform="translate(449.1777,275.9951)"
           id="g1066"><path
             id="path1068"
             style="fill:#231f20;fill-opacity:1;fill-rule:nonzero;stroke:none"
             d="M 0,0 -2.341,7.72 -4.657,0 Z M 1.359,-4.644 H -6.08 l -1.034,-3.544 h -6.692 l 7.972,21.474 H 1.314 L 9.283,-8.188 H 2.421 Z" /></g><g
           transform="translate(459.4014,274.9111)"
           id="g1070"><path
             id="path1072"
             style="fill:#231f20;fill-opacity:1;fill-rule:nonzero;stroke:none"
             d="M 0,0 6.234,0.396 C 6.37,-0.63 6.645,-1.411 7.06,-1.948 c 0.674,-0.869 1.639,-1.304 2.893,-1.304 0.935,0 1.656,0.222 2.162,0.666 0.507,0.444 0.76,0.96 0.76,1.546 0,0.557 -0.241,1.055 -0.724,1.494 -0.482,0.44 -1.6,0.855 -3.356,1.245 C 5.921,2.354 3.872,3.223 2.647,4.307 1.412,5.391 0.796,6.772 0.796,8.452 c 0,1.104 0.315,2.146 0.947,3.128 0.632,0.981 1.581,1.752 2.85,2.315 1.268,0.56 3.007,0.841 5.215,0.841 2.71,0 4.776,-0.51 6.199,-1.531 1.423,-1.02 2.268,-2.643 2.539,-4.87 L 12.368,7.969 c -0.164,0.967 -0.509,1.67 -1.034,2.109 -0.525,0.44 -1.251,0.659 -2.177,0.659 -0.761,0 -1.336,-0.164 -1.721,-0.491 C 7.05,9.919 6.856,9.521 6.856,9.053 6.856,8.711 7.016,8.403 7.334,8.13 7.643,7.847 8.376,7.583 9.533,7.339 12.397,6.714 14.449,6.081 15.688,5.441 16.928,4.802 17.83,4.009 18.394,3.062 18.958,2.114 19.24,1.055 19.24,-0.117 c 0,-1.377 -0.376,-2.647 -1.129,-3.809 -0.752,-1.162 -1.802,-2.043 -3.153,-2.644 -1.351,-0.6 -3.053,-0.901 -5.106,-0.901 -3.608,0 -6.105,0.703 -7.495,2.11 C 0.969,-3.955 0.183,-2.168 0,0" /></g></g></g></g></svg>
